<?xml version="1.0" encoding="UTF-8"?>
<svg xmlns="http://www.w3.org/2000/svg" fill="none" viewBox="0 0 92 107"><path d="M45.82 36.69a16.9 16.9 0 10-.01 33.82 16.9 16.9 0 00.01-33.82Zm0 30.75a13.84 13.84 0 110-27.69 13.84 13.84 0 010 27.69Zm45.05-5.1-7.64-8.74 7.64-8.74a3.05 3.05 0 00.29-3.66 3.2 3.2 0 00-2.73-1.44H65.56q-1-.56-2.06-.95a3.7 3.7 0 01-1.89-1 3.7 3.7 0 01-1-1.89 6.6 6.6 0 00-2.49-3.63 6.5 6.5 0 00-4.34-.34 3.6 3.6 0 01-2.13.08 3.6 3.6 0 01-1.81-1.12A6.6 6.6 0 0045.82 29a6.6 6.6 0 00-4.02 1.91q-.74.84-1.82 1.12a3.6 3.6 0 01-2.13-.08 6.5 6.5 0 00-4.34.34 6.5 6.5 0 00-2.48 3.63 3.7 3.7 0 01-2.89 2.89q-1.08.38-2.06.95h-23a3.1 3.1 0 00-2.95 2.19 3.2 3.2 0 00.72 3.01l7.56 8.64-7.64 8.74A3 3 0 00.48 66c.6.92 1.63 1.46 2.73 1.44h22.87q.98.57 2.06.95c.71.14 1.37.49 1.89 1 .51.52.86 1.18 1 1.89a6.5 6.5 0 002.48 3.63c1.37.61 2.9.73 4.35.34a3.65 3.65 0 013.94 1.04 6.6 6.6 0 004.02 1.91 6.6 6.6 0 004.02-1.91 3.6 3.6 0 011.81-1.12 3.6 3.6 0 012.13.08c1.44.39 2.98.27 4.34-.34a6.6 6.6 0 002.49-3.63c.14-.71.49-1.37 1-1.89a3.7 3.7 0 011.89-1q1.07-.38 2.06-.95h22.86A3.2 3.2 0 0091.16 66a3.05 3.05 0 00-.29-3.66Zm-2.31-19.5-2.7 3.07H67.42q.33-1.52.21-3.07zm-8.54 11.77 3.15 3.6H68.02a7.7 7.7 0 002.4-4.61 7.7 7.7 0 00-2.4-4.61h15.15l-3.15 3.6c-.5.58-.5 1.44 0 2.02Zm-56.89 3.01q.28.32.49.59H8.46l3.15-3.6c.51-.58.51-1.44 0-2.02l-3.15-3.6h15.16a7.7 7.7 0 00-2.4 4.61 6.6 6.6 0 001.91 4.02ZM5.77 45.91l-2.69-3.07h20.93q-.12 1.55.21 3.07zm-2.7 18.46.01-.01 2.69-3.07h18.45a11 11 0 00-.21 3.07zm54.67 5.8q-.31 1.18-1.16 2.08-1.17.27-2.34-.04a6.6 6.6 0 00-6.32 1.68 5 5 0 01-2.1 1.24 5 5 0 01-2.1-1.24 6.6 6.6 0 00-6.33-1.68c-.76.21-1.57.22-2.34.04a5 5 0 01-1.16-2.08 6.6 6.6 0 00-4.64-4.64 5 5 0 01-2.08-1.17 5 5 0 01.04-2.34 6.6 6.6 0 00-1.68-6.32 5 5 0 01-1.24-2.1q.34-1.21 1.24-2.1a6.6 6.6 0 001.68-6.32 5 5 0 01-.04-2.34q.9-.85 2.08-1.17a6.6 6.6 0 004.64-4.64q.32-1.19 1.17-2.07a4.6 4.6 0 012.34.03c2.25.6 4.66-.04 6.32-1.68a4.6 4.6 0 012.1-1.23c.79.21 1.52.64 2.1 1.23a6.6 6.6 0 006.32 1.68 4.6 4.6 0 012.34-.03q.85.88 1.16 2.07a6.6 6.6 0 004.65 4.65c.77.2 1.49.6 2.07 1.16q.29 1.17-.03 2.34a6.6 6.6 0 001.68 6.32q.9.88 1.23 2.1-.34 1.21-1.23 2.1a6.6 6.6 0 00-1.68 6.32q.3 1.17.03 2.34-.88.85-2.07 1.17a6.6 6.6 0 00-4.65 4.64Zm9.89-5.81q.1-1.55-.21-3.07h18.44l2.69 3.07z" fill="#FF4D01" stroke="#B91524" mask="url(#path-1-inside-1_2048_41)"/><path d="M49.3 43.45 52.36 64h-5.48l-.26-3.69H44.7L44.38 64h-5.53l2.71-20.55zm-2.84 13.21q-.4-3.5-.81-8.62-.81 5.9-1.01 8.62z" fill="#FF4D01"/><path d="M13.33 18.91a.75.75 0 011.34 0l2.41 4.86.12.23.26.04 5.4.78c.62.09.85.83.42 1.25l-3.91 3.78-.19.19.04.26.92 5.34c.11.59-.52 1.06-1.08.77l-4.83-2.52-.23-.12-.23.12-4.83 2.52c-.56.29-1.19-.18-1.08-.77l.92-5.34.04-.26-.19-.19-3.91-3.78a.74.74 0 01.31-1.23l.11-.02 5.4-.78.26-.04.12-.23zm64 0a.75.75 0 011.34 0l2.41 4.86.12.23.26.04 5.4.78c.62.09.85.83.42 1.25l-3.91 3.78-.19.19.04.26.92 5.34c.11.59-.52 1.06-1.08.77l-4.83-2.52-.23-.12-.23.12-4.83 2.52c-.56.29-1.19-.18-1.08-.77l.92-5.34.04-.26-.19-.19-3.91-3.78a.74.74 0 01.31-1.23l.11-.02 5.4-.78.26-.04.12-.23z" fill="#FF4D01" stroke="#B91524"/><path d="M44.78 1.27a1.35 1.35 0 012.44 0l3.63 7.42.11.23.26.04 8.11 1.19a1.39 1.39 0 01.75 2.36l-5.86 5.78-.19.18.05.26 1.38 8.15a1.37 1.37 0 01-1.98 1.46l-7.25-3.85-.23-.12-.23.12-7.25 3.85c-1 .52-2.18-.32-1.98-1.46l1.38-8.15.05-.26-.19-.18-5.86-5.78c-.82-.8-.36-2.2.75-2.36l8.11-1.19.26-.04.11-.23z" fill="#D9D9D9" stroke="#D9D9D9"/><path d="M78.67 88.09a.75.75 0 01-1.34 0l-2.41-4.86-.12-.23-.26-.04-5.4-.78a.73.73 0 01-.42-1.25l3.91-3.78.19-.19-.04-.26-.92-5.34c-.11-.59.52-1.06 1.08-.77l4.83 2.52.23.12.23-.12 4.83-2.52c.56-.29 1.19.18 1.08.77l-.92 5.34-.04.26.19.19 3.91 3.78a.74.74 0 01-.31 1.23l-.11.02-5.4.78-.26.04-.12.23zm-64 0a.75.75 0 01-1.34 0l-2.41-4.86-.12-.23-.26-.04-5.4-.78a.73.73 0 01-.42-1.25l3.91-3.78.19-.19-.04-.26-.92-5.34c-.11-.59.52-1.06 1.08-.77l4.83 2.52.23.12.23-.12 4.83-2.52c.56-.29 1.19.18 1.08.77l-.92 5.34-.04.26.19.19 3.91 3.78a.74.74 0 01-.31 1.23l-.11.02-5.4.78-.26.04-.12.23zm32.55 17.64a1.35 1.35 0 01-2.44 0l-3.63-7.42-.11-.23-.26-.04-8.11-1.19a1.39 1.39 0 01-.75-2.36l5.86-5.78.19-.18-.05-.26-1.38-8.15a1.37 1.37 0 011.98-1.46l7.25 3.85.23.12.23-.12 7.25-3.85c1-.52 2.18.32 1.98 1.46l-1.38 8.15-.05.26.19.18 5.86 5.78c.82.8.36 2.2-.75 2.36l-8.11 1.19-.26.04-.11.23z" fill="#FF4D01" stroke="#B91524"/></svg>