<svg fill="#ffb400" viewBox="144 144 512 512" xmlns="http://www.w3.org/2000/svg" transform="scale(-1 1)" stroke="#ffb400"><g stroke-width="0"/><g stroke-linecap="round" stroke-linejoin="round" stroke-width="3.072"><path d="M367.15 487.66c.957.957 2.215 1.46 3.578 1.46 1.36 0 2.621-.554 3.578-1.46l16.777-16.777 67.562-41.363c2.016 1.563 4.535 2.469 7.356 2.469.804 0 1.664-.051 2.52-.203 3.628-.657 7.253-2.57 10.175-5.493 6.551-6.55 7.61-15.82 2.418-21.008-5.238-5.238-14.46-4.18-21.059 2.368-.957.957-1.762 1.964-2.52 3.023l-28.815-1.11 18.238-64.788c4.836-.352 9.976-2.72 14.055-6.75 7.91-7.91 9.27-18.895 3.125-25.04s-17.18-4.785-25.04 3.126c-4.081 4.082-6.5 9.218-6.85 14.105l-64.689 18.238-1.11-28.816c1.06-.754 2.118-1.563 3.024-2.52 6.55-6.55 7.61-15.82 2.367-21.059-2.672-2.672-6.648-3.828-10.883-3.074-3.629.656-7.254 2.57-10.125 5.492-2.922 2.922-4.836 6.5-5.492 10.125-.656 3.727.203 7.203 2.266 9.824l-41.363 67.562-16.777 16.777a5.02 5.02 0 0 0 0 7.106zm104.69-75.621c.3-.05.555-.05.805-.05.554 0 1.007.1 1.257.35.754.755.454 3.93-2.418 6.802-1.46 1.46-3.175 2.418-4.785 2.718-.957.153-1.715.051-2.265-.656-.203-.605-.203-1.762.504-3.324a9.8 9.8 0 0 1 2.168-3.074c1.46-1.504 3.175-2.461 4.734-2.766m-25.641-88.82c2.672-2.672 5.844-3.98 8.16-3.98 1.11 0 2.016.3 2.621.906 1.813 1.812.856 6.8-3.125 10.78-3.426 3.427-7.254 4.384-9.472 3.778-.555-.152-1.008-.352-1.309-.707-.3-.3-.555-.754-.707-1.36-.55-2.163.406-5.992 3.832-9.417m-11.336 16.676q.53.679 1.059 1.21c.402.403.804.755 1.257 1.11L417.23 413c-.402 1.461-.152 3.075.754 4.332a4.94 4.94 0 0 0 3.88 2.067l31.94 1.21-65.14 39.903-72.099-72.152 39.902-65.141 1.211 31.94a4.93 4.93 0 0 0 2.067 3.88c1.257.906 2.82 1.21 4.332.753zm-79.602-29.574c.3-1.613 1.258-3.324 2.719-4.785 2.015-2.016 4.18-2.77 5.543-2.77.554 0 1.008.153 1.21.352.352.351.454 1.11.301 2.066-.25 1.614-1.257 3.324-2.671 4.735a10.5 10.5 0 0 1-3.176 2.168c-1.461.656-2.672.656-3.68.25-.348-.301-.45-1.11-.246-2.016m-45.094 85.949 70.633 70.633-10.078 10.078-70.629-70.633z"/><path d="M606.56 357.58c.656-41.363-12.645-76.883-38.441-102.62l-22.973-22.973c-32.09-32.094-78.695-43.582-128.12-36.277-.605 0-1.21.102-1.715.3-48.918 7.657-100.36 33.606-143.03 76.278s-68.617 94.16-76.277 143.03a4.9 4.9 0 0 0-.3 1.715c-7.305 49.422 4.18 96.078 36.272 128.12l.153.152 22.773 22.773c25.039 25.039 60.254 38.488 100.21 38.488 4.031 0 8.16-.152 12.293-.402 18.895-1.258 38.289-5.391 57.637-12.344 16.07-5.645 31.94-13.2 47.105-22.47 13.754-8.21 27.305-18.034 40.305-29.27 4.988-4.28 10.125-9.117 15.316-14.308 6.851-6.852 13.199-13.855 18.895-20.86 10.832-12.948 20.402-26.8 28.465-41.108 8.918-15.72 16.07-31.992 21.262-48.367 6.449-20.152 9.875-40.305 10.125-59.801.047 0 0-.051.047-.051zm-17.48 48.668-14.762-14.762c3.074-10.125 5.39-20.203 6.953-30.18.05-.102 0-.203.05-.3a215 215 0 0 0 1.716-14.813l13.352 13.352c-.407 15.266-2.926 30.934-7.309 46.703m-19.598 48.719-15.516-15.516c6.7-12.191 12.293-24.637 16.777-37.23l15.062 15.062c-4.234 12.695-9.727 25.34-16.324 37.684zm-27.156 41.16-15.77-15.77c8.21-10.176 15.668-20.859 22.219-31.84l15.617 15.617c-6.45 11.035-13.855 21.715-22.066 31.992zm-72.043 64.488-15.668-15.668c10.629-6.7 21.059-14.359 31.234-22.871l15.82 15.82c-10.227 8.512-20.707 16.117-31.387 22.719zm-45.695 22.57-15.164-15.164c12.344-4.785 24.535-10.73 36.324-17.684l15.566 15.566c-11.941 6.902-24.234 12.695-36.727 17.281zm-55.672 12.695-13.805-13.805c14.461-1.762 29.172-5.187 43.832-10.227l14.965 14.965c-15.117 4.785-30.23 7.86-44.992 9.066zm-38.492-22.316c-.25 0-.555-.05-.805-.05-12.848-.153-25.09-1.762-36.578-4.837a3 3 0 0 1-.707-.25c-3.629-1.007-7.203-2.117-10.68-3.375-.754-.3-1.46-.656-2.215-.957-2.921-1.16-5.843-2.316-8.613-3.68-1.258-.605-2.418-1.308-3.629-1.964-2.215-1.16-4.433-2.266-6.601-3.578-1.563-.957-3.024-2.067-4.485-3.075-1.715-1.16-3.476-2.214-5.09-3.476-.05-.05-.101-.102-.203-.152-2.77-2.067-5.441-4.383-8.011-6.75l39.75-39.75c17.48 15.566 40.457 23.832 66.605 23.832 4.484 0 9.07-.352 13.703-.805l-7.153 47.156c-3.98.504-7.91.957-11.84 1.21-4.632.4-9.066.5-13.449.5zm-54.512-290.55 27.355 27.355c-26.902 28.215-43.68 61.516-49.375 93.508l-47.004 7.152c8.164-43.68 31.641-89.324 69.023-128.02zm34.461 20.199-27.355-27.355c38.691-37.383 84.336-60.859 127.97-69.074l-7.152 47.004c-31.945 5.746-65.246 22.523-93.461 49.426zm-47.309 105.85c5.14-33.805 23.176-67.609 50.785-95.219 34.109-34.109 76.578-52.246 113.96-52.246 24.637 0 47.055 7.86 63.43 24.234 19.75 19.75 27.809 48.918 22.773 82.121-5.14 33.805-23.176 67.609-50.785 95.219s-61.465 45.645-95.219 50.785c-33.199 5.04-62.371-3.023-82.121-22.773-19.75-19.699-27.863-48.867-22.824-82.121zm278.41-166.31c2.367 2.621 4.684 5.29 6.75 8.012l.152.152c1.258 1.715 2.418 3.477 3.63 5.238.804 1.16 1.613 2.266 2.366 3.477 1.008 1.664 1.915 3.375 2.82 5.09.755 1.41 1.614 2.77 2.368 4.23.855 1.664 1.512 3.426 2.316 5.14.707 1.563 1.461 3.075 2.067 4.684.707 1.762 1.258 3.63 1.914 5.493.555 1.613 1.16 3.175 1.664 4.836.605 2.015 1.059 4.082 1.562 6.097.403 1.563.856 3.074 1.211 4.637.504 2.316.856 4.684 1.211 7.055.203 1.359.504 2.718.707 4.132.352 2.77.606 5.645.805 8.516.102 1.059.25 2.016.3 3.074.204 3.93.302 7.91.25 11.941-.1 6.953-.753 14.008-1.663 21.06l-47.105 7.152c3.175-30.633-4.18-59.348-22.922-80.36zm-58.645 268.73c-12.543 10.883-25.594 20.355-38.895 28.266-14.609 8.918-29.824 16.172-45.293 21.613-10.934 3.93-21.816 6.75-32.648 8.816l7.106-46.855c33.199-5.894 66.102-23.328 93.559-49.473l27.355 27.355a257 257 0 0 1-11.184 10.277zm18.289-17.484-27.305-27.305c26.902-28.215 43.68-61.516 49.375-93.508l47.004-7.152c-1.562 8.414-3.629 16.879-6.348 25.39-4.988 15.72-11.84 31.337-20.453 46.454-7.808 13.805-17.027 27.105-27.508 39.648-4.488 5.492-9.476 11.03-14.766 16.473zm95.07-148.93-12.594-12.594c0-3.176-.05-6.348-.25-9.473-.05-.605-.05-1.21-.102-1.863a127 127 0 0 0-1.058-10.781c-.102-.707-.203-1.36-.3-2.016-.505-3.578-1.11-7.105-1.864-10.578-.102-.402-.203-.754-.25-1.16a155 155 0 0 0-2.57-9.824c-.153-.402-.25-.855-.352-1.258-.754-2.418-1.512-4.836-2.418-7.152 12.94 18.637 20.246 41.309 21.758 66.699m-61.871-109.48-39.648 39.648c-21.008-18.691-49.727-26.047-80.359-22.922l7.152-47.207c43.332-5.691 83.887 3.98 112.86 30.48zm-329.14 185.86 47.207-7.152c-3.176 30.633 4.18 59.348 22.922 80.359l-39.648 39.648c-26.551-28.973-36.223-69.527-30.48-112.86zm73.504 153.21c1.512.555 3.074 1.059 4.637 1.563.656.203 1.308.453 1.965.656 3.222 1.008 6.55 1.863 9.875 2.672.753.203 1.562.351 2.316.504 2.719.605 5.492 1.109 8.262 1.562.906.152 1.863.3 2.77.453 3.425.453 6.901.856 10.43 1.11.753.05 1.46.05 2.214.101 2.922.203 5.894.3 8.918.3.605 0 1.16.052 1.762.052.504 0 1.007-.051 1.46-.051 2.922 0 5.844-.102 8.766-.25l13.148 13.148c-29.012-.004-55.414-7.512-76.523-21.82m241.93-54.059a272 272 0 0 1-11.336 10.68l-15.82-15.82c3.727-3.375 7.508-6.902 11.285-10.68 5.492-5.492 10.531-11.082 15.316-16.676l15.82 15.82c-4.734 5.594-9.773 11.184-15.266 16.676z"/></g><path d="M367.15 487.66c.957.957 2.215 1.46 3.578 1.46 1.36 0 2.621-.554 3.578-1.46l16.777-16.777 67.562-41.363c2.016 1.563 4.535 2.469 7.356 2.469.804 0 1.664-.051 2.52-.203 3.628-.657 7.253-2.57 10.175-5.493 6.551-6.55 7.61-15.82 2.418-21.008-5.238-5.238-14.46-4.18-21.059 2.368-.957.957-1.762 1.964-2.52 3.023l-28.815-1.11 18.238-64.788c4.836-.352 9.976-2.72 14.055-6.75 7.91-7.91 9.27-18.895 3.125-25.04s-17.18-4.785-25.04 3.126c-4.081 4.082-6.5 9.218-6.85 14.105l-64.689 18.238-1.11-28.816c1.06-.754 2.118-1.563 3.024-2.52 6.55-6.55 7.61-15.82 2.367-21.059-2.672-2.672-6.648-3.828-10.883-3.074-3.629.656-7.254 2.57-10.125 5.492-2.922 2.922-4.836 6.5-5.492 10.125-.656 3.727.203 7.203 2.266 9.824l-41.363 67.562-16.777 16.777a5.02 5.02 0 0 0 0 7.106zm104.69-75.621c.3-.05.555-.05.805-.05.554 0 1.007.1 1.257.35.754.755.454 3.93-2.418 6.802-1.46 1.46-3.175 2.418-4.785 2.718-.957.153-1.715.051-2.265-.656-.203-.605-.203-1.762.504-3.324a9.8 9.8 0 0 1 2.168-3.074c1.46-1.504 3.175-2.461 4.734-2.766zm-25.641-88.82c2.672-2.672 5.844-3.98 8.16-3.98 1.11 0 2.016.3 2.621.906 1.813 1.812.856 6.8-3.125 10.78-3.426 3.427-7.254 4.384-9.472 3.778-.555-.152-1.008-.352-1.309-.707-.3-.3-.555-.754-.707-1.36-.55-2.163.406-5.992 3.832-9.417zm-11.336 16.676q.53.679 1.059 1.21c.402.403.804.755 1.257 1.11L417.23 413c-.402 1.461-.152 3.075.754 4.332a4.94 4.94 0 0 0 3.88 2.067l31.94 1.21-65.14 39.903-72.099-72.152 39.902-65.141 1.211 31.94a4.93 4.93 0 0 0 2.067 3.88c1.257.906 2.82 1.21 4.332.753zm-79.602-29.574c.3-1.613 1.258-3.324 2.719-4.785 2.015-2.016 4.18-2.77 5.543-2.77.554 0 1.008.153 1.21.352.352.351.454 1.11.301 2.066-.25 1.614-1.257 3.324-2.671 4.735a10.5 10.5 0 0 1-3.176 2.168c-1.461.656-2.672.656-3.68.25-.348-.301-.45-1.11-.246-2.016zm-45.094 85.949 70.633 70.633-10.078 10.078-70.629-70.633z"/><path d="M606.56 357.58c.656-41.363-12.645-76.883-38.441-102.62l-22.973-22.973c-32.09-32.094-78.695-43.582-128.12-36.277-.605 0-1.21.102-1.715.3-48.918 7.657-100.36 33.606-143.03 76.278s-68.617 94.16-76.277 143.03a4.9 4.9 0 0 0-.3 1.715c-7.305 49.422 4.18 96.078 36.272 128.12l.153.152 22.773 22.773c25.039 25.039 60.254 38.488 100.21 38.488 4.031 0 8.16-.152 12.293-.402 18.895-1.258 38.289-5.391 57.637-12.344 16.07-5.645 31.94-13.2 47.105-22.47 13.754-8.21 27.305-18.034 40.305-29.27 4.988-4.28 10.125-9.117 15.316-14.308 6.851-6.852 13.199-13.855 18.895-20.86 10.832-12.948 20.402-26.8 28.465-41.108 8.918-15.72 16.07-31.992 21.262-48.367 6.449-20.152 9.875-40.305 10.125-59.801.047 0 0-.051.047-.051zm-17.48 48.668-14.762-14.762c3.074-10.125 5.39-20.203 6.953-30.18.05-.102 0-.203.05-.3a215 215 0 0 0 1.716-14.813l13.352 13.352c-.407 15.266-2.926 30.934-7.309 46.703zm-19.598 48.719-15.516-15.516c6.7-12.191 12.293-24.637 16.777-37.23l15.062 15.062c-4.234 12.695-9.727 25.34-16.324 37.684zm-27.156 41.16-15.77-15.77c8.21-10.176 15.668-20.859 22.219-31.84l15.617 15.617c-6.45 11.035-13.855 21.715-22.066 31.992zm-72.043 64.488-15.668-15.668c10.629-6.7 21.059-14.359 31.234-22.871l15.82 15.82c-10.227 8.512-20.707 16.117-31.387 22.719zm-45.695 22.57-15.164-15.164c12.344-4.785 24.535-10.73 36.324-17.684l15.566 15.566c-11.941 6.902-24.234 12.695-36.727 17.281zm-55.672 12.695-13.805-13.805c14.461-1.762 29.172-5.187 43.832-10.227l14.965 14.965c-15.117 4.785-30.23 7.86-44.992 9.066zm-38.492-22.316c-.25 0-.555-.05-.805-.05-12.848-.153-25.09-1.762-36.578-4.837a3 3 0 0 1-.707-.25c-3.629-1.007-7.203-2.117-10.68-3.375-.754-.3-1.46-.656-2.215-.957-2.921-1.16-5.843-2.316-8.613-3.68-1.258-.605-2.418-1.308-3.629-1.964-2.215-1.16-4.433-2.266-6.601-3.578-1.563-.957-3.024-2.067-4.485-3.075-1.715-1.16-3.476-2.214-5.09-3.476-.05-.05-.101-.102-.203-.152-2.77-2.067-5.441-4.383-8.011-6.75l39.75-39.75c17.48 15.566 40.457 23.832 66.605 23.832 4.484 0 9.07-.352 13.703-.805l-7.153 47.156c-3.98.504-7.91.957-11.84 1.21-4.632.4-9.066.5-13.449.5zm-54.512-290.55 27.355 27.355c-26.902 28.215-43.68 61.516-49.375 93.508l-47.004 7.152c8.164-43.68 31.641-89.324 69.023-128.02zm34.461 20.199-27.355-27.355c38.691-37.383 84.336-60.859 127.97-69.074l-7.152 47.004c-31.945 5.746-65.246 22.523-93.461 49.426zm-47.309 105.85c5.14-33.805 23.176-67.609 50.785-95.219 34.109-34.109 76.578-52.246 113.96-52.246 24.637 0 47.055 7.86 63.43 24.234 19.75 19.75 27.809 48.918 22.773 82.121-5.14 33.805-23.176 67.609-50.785 95.219s-61.465 45.645-95.219 50.785c-33.199 5.04-62.371-3.023-82.121-22.773-19.75-19.699-27.863-48.867-22.824-82.121zm278.41-166.31c2.367 2.621 4.684 5.29 6.75 8.012l.152.152c1.258 1.715 2.418 3.477 3.63 5.238.804 1.16 1.613 2.266 2.366 3.477 1.008 1.664 1.915 3.375 2.82 5.09.755 1.41 1.614 2.77 2.368 4.23.855 1.664 1.512 3.426 2.316 5.14.707 1.563 1.461 3.075 2.067 4.684.707 1.762 1.258 3.63 1.914 5.493.555 1.613 1.16 3.175 1.664 4.836.605 2.015 1.059 4.082 1.562 6.097.403 1.563.856 3.074 1.211 4.637.504 2.316.856 4.684 1.211 7.055.203 1.359.504 2.718.707 4.132.352 2.77.606 5.645.805 8.516.102 1.059.25 2.016.3 3.074.204 3.93.302 7.91.25 11.941-.1 6.953-.753 14.008-1.663 21.06l-47.105 7.152c3.175-30.633-4.18-59.348-22.922-80.36zm-58.645 268.73c-12.543 10.883-25.594 20.355-38.895 28.266-14.609 8.918-29.824 16.172-45.293 21.613-10.934 3.93-21.816 6.75-32.648 8.816l7.106-46.855c33.199-5.894 66.102-23.328 93.559-49.473l27.355 27.355a257 257 0 0 1-11.184 10.277zm18.289-17.484-27.305-27.305c26.902-28.215 43.68-61.516 49.375-93.508l47.004-7.152c-1.562 8.414-3.629 16.879-6.348 25.39-4.988 15.72-11.84 31.337-20.453 46.454-7.808 13.805-17.027 27.105-27.508 39.648-4.488 5.492-9.476 11.03-14.766 16.473zm95.07-148.93-12.594-12.594c0-3.176-.05-6.348-.25-9.473-.05-.605-.05-1.21-.102-1.863a127 127 0 0 0-1.058-10.781c-.102-.707-.203-1.36-.3-2.016-.505-3.578-1.11-7.105-1.864-10.578-.102-.402-.203-.754-.25-1.16a155 155 0 0 0-2.57-9.824c-.153-.402-.25-.855-.352-1.258-.754-2.418-1.512-4.836-2.418-7.152 12.94 18.637 20.246 41.309 21.758 66.699zm-61.871-109.48-39.648 39.648c-21.008-18.691-49.727-26.047-80.359-22.922l7.152-47.207c43.332-5.691 83.887 3.98 112.86 30.48zm-329.14 185.86 47.207-7.152c-3.176 30.633 4.18 59.348 22.922 80.359l-39.648 39.648c-26.551-28.973-36.223-69.527-30.48-112.86zm73.504 153.21c1.512.555 3.074 1.059 4.637 1.563.656.203 1.308.453 1.965.656 3.222 1.008 6.55 1.863 9.875 2.672.753.203 1.562.351 2.316.504 2.719.605 5.492 1.109 8.262 1.562.906.152 1.863.3 2.77.453 3.425.453 6.901.856 10.43 1.11.753.05 1.46.05 2.214.101 2.922.203 5.894.3 8.918.3.605 0 1.16.052 1.762.052.504 0 1.007-.051 1.46-.051 2.922 0 5.844-.102 8.766-.25l13.148 13.148c-29.012-.004-55.414-7.512-76.523-21.82zm241.93-54.059a272 272 0 0 1-11.336 10.68l-15.82-15.82c3.727-3.375 7.508-6.902 11.285-10.68 5.492-5.492 10.531-11.082 15.316-16.676l15.82 15.82c-4.734 5.594-9.773 11.184-15.266 16.676z"/></svg>