<svg fill="#ffb400" viewBox="144 144 512 512" xmlns="http://www.w3.org/2000/svg" stroke="#ffb400"><g stroke-width="0"/><g stroke-linecap="round" stroke-linejoin="round"/><path d="m394.97 398.21.27 96.922 23.074-13.32-.27-96.918zm62.18-35.9.27 96.914 23.074-13.316-.27-96.914z"/><path d="M272.51 476.85c.031-.215.043-.422.078-.637 14.785-93.043 80.2-199.04 162.08-246.37 24.055-13.87 52.871-24.266 80.812-22.938.238.012.488-.004.727.008l-40.762-23.723c-60.387-35.18-141.68 23.758-185.3 73.121-53.664 60.723-86.648 146.01-86.402 216.3.117 48 16.176 83.695 45.21 100.51l40.747 23.711c-21.637-33.504-23.414-80.234-17.188-119.98z"/><path d="M448.1 288.64c-67.004 38.684-121.34 132.82-121.11 209.85.184 66.684 41.5 90.938 100.32 56.992 67.031-38.707 121.39-132.8 121.16-209.74-.184-66.793-41.539-91.082-100.37-57.102zm-22.359 200.3-32.938 19.012a4.94 4.94 0 0 1-4.93.004 4.95 4.95 0 0 1-2.48-4.27l-.309-108.3a4.93 4.93 0 0 1 2.469-4.293l32.938-19.012a4.94 4.94 0 0 1 4.93-.004 4.95 4.95 0 0 1 2.48 4.27l.309 108.3a4.94 4.94 0 0 1-2.469 4.293zm62.176-35.902-32.938 19.016a4.94 4.94 0 0 1-4.93.004 4.95 4.95 0 0 1-2.48-4.27l-.309-108.3a4.93 4.93 0 0 1 2.469-4.293l32.938-19.016a4.94 4.94 0 0 1 4.93-.003 4.95 4.95 0 0 1 2.48 4.269l.309 108.31a4.92 4.92 0 0 1-2.469 4.29z"/><path d="M551.11 227.19c-.059-.031-.129-.031-.187-.062l-.106-.067c-34.16-19.812-77.109-8.27-111.18 11.406-79.656 45.988-143.04 149.16-157.26 238.94-.008.047-.008.09-.016.137-8.05 50.91-2.183 114.04 42.344 139.67 29.387 16.918 68.855 12.84 111.06-11.543 88.785-51.258 160.8-175.93 160.5-277.9-.136-47.992-16.18-83.664-45.152-100.58zM432.25 564.05c-63.473 36.625-114.93 11.734-115.15-65.523-.223-80.191 56.32-178.18 126.05-218.44 63.691-36.789 114.98-11.473 115.2 65.633.23 80.098-56.328 178.04-126.1 218.33z"/></svg>