<svg fill="#003f91" viewBox="144 144 512 512" xmlns="http://www.w3.org/2000/svg" stroke="#003f91" transform="scale(-1 1)"><g stroke-width="0"/><g stroke-linecap="round" stroke-linejoin="round"/><path d="M239.69 289.11c20.707 2.922 85.496 7.86 142.88-31.891l.3 152.15-153.86-21.613c-9.523-55.82 3.274-97.59 3.981-99.754.051-.004 2.371.5 6.703 1.106zm143.43 278.91-.254-158.65 153.86 21.613c-9.973 56.828-46.246 119.7-153.61 137.04z"/><path d="M222.81 454.51c28.516 60.859 80.004 108.12 153.11 140.46l7.254 3.176 7.254-1.16c31.438-5.09 58.844-14.105 82.172-26.902-.25.152-.453.3-.707.402l34.46-18.742c31.138-16.93 54.966-40.656 71.189-70.988 41.715-78.09 15.973-170.79 14.863-174.72l-6.5-22.621-21.06-1.41c-.1 0-1.863-.153-4.835-.555-16.727-2.367-75.371-13.906-126.66-63.73l-16.473-15.973-34.461 18.742-14.105 9.773c-41.363 16.375-81.012 12.898-94.312 10.984-2.922-.402-4.637-.804-4.988-.804l-20.906-4.434-34.461 18.742-6.399 20.656c-1.062 3.727-26.457 89.273 15.562 179.11zm-2.672-172.76 3.223-10.328 10.48 2.266c.25.05 2.316.453 5.793.957 16.523 2.316 71.34 6.953 122.63-22.47-1.11.606-2.168 1.31-3.274 1.915l25.04-13.652 6.699 6.5c54.664 53.102 116.98 65.395 134.82 67.914 3.527.504 5.593.656 5.793.707l10.48.656 3.222 11.285c1.059 3.68 25.242 90.383-13.906 163.59-26.348 49.422-74.965 80.203-144.34 91.438l-3.629.555-3.628-1.614c-69.477-30.73-118.2-75.168-144.89-132.2-39.395-84.184-15.562-164.14-14.508-167.52zm144.9-31.234a168 168 0 0 0 9.27-5.945 174 174 0 0 1-9.27 5.945z"/></svg>