<svg fill="#358600" viewBox="144 144 512 512" xmlns="http://www.w3.org/2000/svg" stroke="#358600"><g stroke-width="0"/><g stroke-linecap="round" stroke-linejoin="round"/><path d="M400 158.17c-64.137 0-125.65 25.477-171 70.828s-70.828 106.86-70.828 171 25.477 125.64 70.828 171a241.83 241.83 0 0 0 342 0 241.83 241.83 0 0 0 70.832-171 242.14 242.14 0 0 0-70.918-170.91 242.12 242.12 0 0 0-170.91-70.918zm0 468.54v-.004a226.7 226.7 0 0 1-160.31-66.402 226.7 226.7 0 0 1-66.402-160.31c0-60.129 23.887-117.8 66.402-160.31S339.87 173.282 400 173.282a226.73 226.73 0 0 1 160.31 66.402 226.7 226.7 0 0 1 66.402 160.31 226.74 226.74 0 0 1-30.371 113.36A226.71 226.71 0 0 1 399.997 626.71zm0-430.76c-54.117 0-106.02 21.496-144.28 59.762s-59.762 90.164-59.762 144.28c0 54.113 21.496 106.01 59.762 144.28s90.164 59.766 144.28 59.766a204.056 204.056 0 0 0 204.046-204.046c0-54.117-21.5-106.02-59.766-144.28S454.116 195.95 400 195.95zm-97.336 62.117a20.407 20.407 0 0 1 20.403 20.407 20.4 20.4 0 0 1-5.977 14.426 20.4 20.4 0 0 1-28.856 0 20.4 20.4 0 0 1 0-28.856 20.42 20.42 0 0 1 14.43-5.977zM261.602 328.2a11.74 11.74 0 0 1-10.844-7.246 11.738 11.738 0 1 1 22.582-4.492c0 6.48-5.254 11.738-11.738 11.738zm223.54 68.918 1.11.906v-53.453c0-5.562 4.511-10.074 10.077-10.074h8.211a10.1 10.1 0 0 1 7.125 2.95 10.07 10.07 0 0 1 2.95 7.124v128.93a10.073 10.073 0 0 1-10.075 10.079h-8.113c-5.563 0-10.074-4.512-10.074-10.078V420.15l-1.11.906-78.995 58.09a15.1 15.1 0 0 1-10.215 2.535 15.11 15.11 0 0 1-13.414-14.477v-46.098l-78.746 58.04a15.1 15.1 0 0 1-10.215 2.535 15.1 15.1 0 0 1-9.395-4.746 15.1 15.1 0 0 1-4.02-9.731v-116.28a15.112 15.112 0 0 1 23.629-11.937l78.747 58.038v-46.102a15.13 15.13 0 0 1 4.015-9.73 15.12 15.12 0 0 1 19.614-2.207"/></svg>