<!DOCTYPE svg PUBLIC "-//W3C//DTD SVG 1.1//EN" "http://www.w3.org/Graphics/SVG/1.1/DTD/svg11.dtd">
<!-- Uploaded to: SVG Find, www.svgfind.com, Transformed by: SVG Find Mixer Tools -->
<svg fill="#003F91" width="800px" height="800px" version="1.1" viewBox="144 144 512 512" xmlns="http://www.w3.org/2000/svg" stroke="#003F91">
<g id="SVGRepo_bgCarrier" stroke-width="0"/>
<g id="SVGRepo_tracerCarrier" stroke-linecap="round" stroke-linejoin="round"/>
<g id="SVGRepo_iconCarrier"> <g> <path d="m245.88 530.08h200.52c2.7695 0 4.9883-2.2148 4.9883-4.9883v-81.77c0-2.7695-2.2148-4.9883-4.9883-4.9883l-200.52 0.003906c-2.7695 0-4.9883 2.2148-4.9883 4.9883v81.77c0 2.7695 2.2148 4.9883 4.9883 4.9883zm4.9883-81.77h190.54v71.844h-190.54z"/> <path d="m596.08 561.07v-149.03c15.012-5.9961 25.594-20.051 25.594-36.375v-0.45312-0.30078l-16.121-106.55v-65.547c0-2.7695-2.2148-4.9883-4.9883-4.9883h-401.09c-2.7695 0-4.9883 2.2148-4.9883 4.9883v65.547l-16.121 106.55v0.30078s-0.050782 0.30078-0.050782 0.45312c0 16.375 10.578 30.43 25.594 36.375v149.03c-10.578 0.85547-18.895 9.7227-18.895 20.504 0 11.336 9.2188 20.555 20.555 20.555h388.79c11.336 0 20.555-9.2188 20.555-20.555 0-11.336-8.3125-19.648-18.895-20.504zm-16.172-155.88c-15.719 0-28.766-10.629-31.336-24.535h62.676c-2.5703 13.906-15.617 24.535-31.336 24.535zm-376.14-131.45h61.164l-12.445 96.984h-63.379zm190.69 0v96.984h-58.594l8.1133-96.984zm201.82 0 14.66 96.984h-63.176l-12.445-96.984zm-70.938 0 12.445 96.984h-63.328l-8.1133-96.984h59.047zm-69.023 0 8.1133 96.984h-59.953v-96.984h51.844zm-130.39 96.984h-63.328l12.445-96.984h59.047l-8.1133 96.984zm-0.85547 9.9766c-2.5703 13.906-15.617 24.535-31.336 24.535s-28.766-10.629-31.336-24.535h62.676zm69.023 0c-2.3672 13.906-14.508 24.535-29.07 24.535-14.559 0-26.703-10.629-29.07-24.535zm70.129 0c-2.3672 13.906-14.508 24.535-29.07 24.535-14.559 0-26.703-10.629-29.07-24.535zm73.555 0c-2.5703 13.906-15.617 24.535-31.336 24.535s-28.766-10.629-31.336-24.535h62.676zm-333.32-172.91h391.06v55.973h-391.06zm-15.719 172.91h62.676c-2.5703 13.906-15.617 24.535-31.336 24.535s-28.766-10.629-31.336-24.535zm31.336 34.461c15.871 0 29.727-8.4141 36.777-20.809 7.0547 12.344 20.906 20.809 36.777 20.809s29.523-8.3125 36.625-20.555c6.6992 12.242 19.699 20.555 34.613 20.555 14.914 0 28.516-8.6641 35.066-21.363 6.5508 12.695 19.801 21.363 35.066 21.363s27.91-8.3125 34.613-20.555c7.1055 12.242 20.859 20.555 36.625 20.555 15.77 0 29.727-8.4141 36.777-20.809 7.0547 12.344 20.906 20.809 36.777 20.809 2.1172 0 4.1797-0.15234 6.1953-0.45312v146.3h-33.805v-117.69c0-2.7695-2.2148-4.9883-4.9883-4.9883h-73.406c-2.7695 0-4.9883 2.2148-4.9883 4.9883v117.69h-254.92v-146.3c2.0156 0.30078 4.082 0.45312 6.1953 0.45312zm258.81 145.85v-112.7h63.43v112.7zm115.47 31.188h-388.74c-5.8438 0-10.629-4.7852-10.629-10.629s4.7852-10.629 10.629-10.629l388.74-0.003906c5.8438 0 10.629 4.7852 10.629 10.629s-4.7852 10.629-10.629 10.629z"/> </g> </g>
</svg>